<?xml version="1.0" standalone="no"?>
<!DOCTYPE svg PUBLIC "-//W3C//DTD SVG 20010904//EN"
 "http://www.w3.org/TR/2001/REC-SVG-20010904/DTD/svg10.dtd">
<svg version="1.0" xmlns="http://www.w3.org/2000/svg"
 width="267.000000pt" height="267.000000pt" viewBox="0 0 267.000000 267.000000"
 preserveAspectRatio="xMidYMid meet">
<metadata>
Created by potrace 1.14, written by Peter Selinger 2001-2017
</metadata>
<g transform="translate(0.000000,267.000000) scale(0.100000,-0.100000)"
fill="#000000" stroke="none">
<path d="M953 2291 c-15 -15 -102 -106 -193 -201 -91 -95 -171 -180 -179 -187
-13 -14 -7 -24 59 -93 17 -17 115 -127 175 -194 39 -44 77 -86 85 -95 9 -9 67
-74 130 -146 63 -71 117 -132 121 -135 3 -3 30 -32 59 -65 29 -33 87 -97 127
-142 l75 -82 76 87 c42 48 97 110 123 137 25 28 106 118 179 200 73 83 140
157 149 166 9 9 30 31 46 50 39 45 180 203 225 252 19 22 35 43 35 47 0 6
-244 266 -373 397 l-33 33 -429 0 -428 0 -29 -29z m879 -30 c2 -4 80 -88 173
-185 94 -97 172 -181 173 -187 3 -7 -136 -169 -188 -219 -4 -4 -116 -127 -317
-350 -17 -19 -40 -44 -50 -56 -10 -12 -53 -59 -95 -105 -42 -46 -85 -94 -96
-107 l-19 -22 -69 73 c-38 41 -98 107 -134 147 -36 40 -70 78 -75 84 -6 6
-114 126 -240 266 -126 140 -236 261 -243 269 -7 7 -12 17 -10 21 2 5 80 88
173 185 94 98 172 181 173 186 5 12 839 12 844 0z"/>
<path d="M909 2059 c-139 -145 -150 -162 -127 -186 14 -14 82 -15 613 -15
l597 0 -19 -20 c-24 -28 -51 -57 -158 -169 -49 -53 -162 -171 -249 -263 l-159
-167 -248 252 c-178 181 -252 250 -263 246 -9 -4 -16 -12 -16 -19 0 -7 114
-129 253 -270 204 -208 259 -258 280 -258 14 0 30 6 34 14 4 8 40 47 78 88 39
41 138 145 220 233 83 87 182 192 220 233 85 89 95 107 71 130 -15 16 -63 17
-599 17 -320 0 -584 4 -587 7 -3 4 42 57 99 118 l103 110 355 0 355 0 80 -84
c50 -54 84 -83 94 -79 28 11 12 40 -71 126 l-85 87 -373 0 -373 0 -125 -131z"/>
<path d="M465 1544 c-15 -15 -15 -19 -1 -32 17 -17 46 -10 46 11 0 8 -6 20
-14 26 -11 9 -18 8 -31 -5z"/>
<path d="M570 1541 c0 -24 25 -34 40 -16 15 18 5 35 -21 35 -12 0 -19 -7 -19
-19z"/>
<path d="M2204 1548 c-8 -12 24 -40 37 -32 5 3 9 14 9 25 0 21 -34 27 -46 7z"/>
<path d="M2320 1545 c-15 -18 -6 -45 13 -45 8 0 20 6 26 14 9 11 8 18 -4 30
-20 20 -20 20 -35 1z"/>
<path d="M351 1482 c-12 -22 3 -42 30 -42 19 0 34 33 24 50 -10 16 -44 11 -54
-8z"/>
<path d="M2413 1484 c-3 -8 1 -23 10 -31 21 -21 47 -9 47 22 0 20 -5 25 -25
25 -14 0 -28 -7 -32 -16z"/>
<path d="M517 1465 c-80 -20 -123 -77 -114 -150 8 -74 55 -116 120 -109 62 6
97 53 83 108 -9 36 -61 45 -89 17 -20 -20 -20 -22 -4 -38 14 -14 21 -15 35 -6
9 6 16 18 16 27 -2 13 1 14 12 5 48 -40 -40 -105 -103 -76 -45 20 -54 105 -15
140 34 29 78 45 119 41 93 -7 214 -100 279 -214 63 -110 115 -195 130 -217 15
-21 15 -22 -10 -29 -23 -5 -34 2 -81 53 -30 33 -86 81 -124 109 -52 36 -72 57
-77 79 -18 77 -9 93 33 57 30 -25 52 -82 33 -82 -5 0 -18 16 -30 36 -12 19
-24 33 -27 30 -6 -6 23 -60 43 -81 16 -16 18 -15 30 6 13 26 9 66 -9 88 -16
19 -88 63 -94 57 -11 -11 -7 -126 5 -138 19 -19 14 -29 -13 -22 -67 17 -165
-61 -165 -131 0 -42 47 -112 84 -125 37 -13 87 -13 121 0 73 28 53 174 -21
156 -19 -5 -25 -12 -22 -29 2 -18 9 -22 36 -21 27 2 32 -1 32 -22 0 -48 -76
-87 -122 -63 -66 33 -77 102 -25 154 70 70 156 54 262 -49 36 -35 65 -67 65
-72 0 -5 -42 -31 -92 -59 -50 -27 -126 -69 -167 -92 -122 -67 -225 -84 -293
-49 -58 29 -88 76 -88 137 0 40 5 52 31 78 75 75 197 1 149 -90 -12 -22 -30
-25 -30 -5 0 19 -30 29 -46 15 -39 -33 7 -67 60 -45 115 48 44 200 -86 183
-114 -15 -162 -138 -92 -239 38 -54 98 -80 185 -80 l70 0 -24 -22 c-33 -30
-61 -75 -53 -83 4 -4 31 -7 61 -7 62 -1 88 17 91 62 1 20 -6 31 -28 42 l-29
16 58 23 c32 13 75 34 95 47 21 13 39 24 41 24 2 0 41 22 86 49 96 58 134 69
156 47 9 -9 25 -22 36 -30 20 -14 20 -14 -10 -56 -17 -24 -31 -37 -31 -30 0
18 -74 8 -130 -18 -54 -25 -39 -28 42 -6 33 8 63 13 66 10 8 -9 -46 -55 -71
-60 -12 -3 -37 -4 -54 -2 -18 1 -45 3 -60 4 l-27 2 39 41 c53 54 89 72 136 67
35 -3 37 -2 24 12 -25 25 -96 19 -131 -10 -33 -27 -109 -119 -103 -124 12 -11
133 -34 155 -30 44 8 83 33 98 62 14 26 14 26 13 -25 0 -62 21 -99 68 -119 44
-18 69 -18 104 1 50 25 61 103 20 138 -28 22 -56 22 -69 -2 -14 -26 -13 -29
11 -41 23 -13 54 4 42 23 -3 6 -1 7 5 3 19 -11 14 -64 -8 -86 -11 -11 -33 -20
-50 -20 -88 0 -110 127 -38 207 19 20 22 21 61 6 54 -20 187 -20 253 0 45 13
57 13 105 0 81 -22 185 -23 246 -2 47 16 54 16 68 2 53 -52 63 -146 20 -188
-46 -47 -125 -19 -125 45 0 32 14 40 24 15 7 -19 30 -19 45 -1 16 19 -3 56
-28 56 -51 0 -81 -67 -55 -121 26 -53 112 -62 168 -18 29 23 49 85 40 126 l-6
28 20 -31 c23 -36 83 -63 127 -59 30 4 116 25 124 31 7 6 -84 112 -117 134
-25 18 -40 21 -69 17 -20 -4 -43 -12 -50 -19 -10 -11 -6 -13 26 -10 47 5 83
-13 136 -67 33 -34 36 -41 20 -42 -11 0 -29 -2 -40 -5 -41 -9 -105 7 -131 33
-14 14 -23 27 -21 29 2 3 35 -3 72 -11 77 -18 95 -14 39 10 -54 23 -134 32
-134 15 0 -7 -14 6 -31 29 -17 24 -29 44 -27 45 2 2 20 15 40 30 34 25 40 27
73 16 19 -6 86 -42 147 -79 62 -37 139 -78 171 -91 l58 -24 -29 -16 c-23 -11
-29 -21 -28 -44 2 -33 37 -66 71 -66 50 0 86 12 80 27 -9 26 -49 72 -67 78
-10 4 -18 10 -18 15 0 6 10 6 23 1 29 -10 106 -6 150 8 50 17 102 71 116 123
28 101 -37 188 -140 188 -82 0 -143 -86 -108 -152 15 -29 74 -51 99 -38 24 13
26 45 5 54 -24 9 -45 -4 -45 -28 0 -20 -1 -20 -20 4 -23 29 -25 52 -8 83 17
34 39 46 80 47 28 0 44 -7 67 -31 17 -17 31 -38 32 -47 0 -9 2 -24 4 -33 5
-26 -30 -93 -60 -117 -79 -62 -198 -45 -366 53 -52 31 -125 71 -162 91 l-69
35 68 66 c66 64 129 102 170 103 35 0 91 -27 113 -56 38 -49 22 -112 -36 -143
-49 -25 -123 17 -123 71 0 25 2 27 19 17 26 -17 53 -4 49 23 -4 31 -41 35 -67
9 -30 -30 -28 -94 4 -126 18 -19 35 -25 70 -25 55 0 93 18 129 60 68 82 -10
210 -127 206 -20 0 -37 0 -37 0 0 1 6 14 14 28 12 24 14 121 2 133 -6 6 -78
-40 -94 -60 -18 -22 -21 -60 -7 -87 11 -21 13 -21 29 -5 20 20 49 75 43 81 -2
2 -16 -14 -31 -36 -29 -44 -36 -49 -31 -22 2 9 4 23 4 30 1 15 58 72 71 72 7
0 5 -52 -5 -95 -3 -11 -28 -36 -57 -55 -28 -19 -84 -67 -124 -107 -55 -55 -78
-71 -95 -68 -31 6 -33 11 -12 34 11 12 41 60 68 108 72 130 118 194 165 233
110 90 209 108 283 49 56 -43 40 -142 -25 -152 -55 -8 -114 38 -93 73 8 13 26
13 23 -1 -2 -6 5 -16 14 -22 14 -9 21 -8 33 4 36 36 -26 74 -71 44 -44 -29
-27 -97 30 -120 109 -46 202 84 133 185 -51 77 -147 93 -251 44 -103 -49 -176
-132 -271 -309 -54 -100 -101 -155 -134 -155 l-26 0 32 20 c42 25 58 62 62
137 l3 63 -57 -25 c-97 -43 -129 -75 -120 -121 2 -11 4 -28 4 -38 1 -28 12
-13 18 26 6 42 26 64 86 94 l48 25 -7 -28 c-15 -68 -27 -94 -54 -113 -15 -11
-31 -20 -34 -20 -9 0 22 71 39 90 16 18 19 30 8 30 -17 0 -75 -100 -70 -120 4
-14 0 -20 -12 -20 -40 0 -138 -33 -192 -65 l-59 -34 -57 34 c-53 31 -153 65
-194 65 -12 0 -16 6 -12 19 3 10 -2 32 -10 47 -18 34 -67 83 -67 66 0 -6 5
-14 10 -17 13 -8 51 -87 45 -93 -2 -3 -15 2 -28 11 -26 17 -51 64 -61 115 l-6
33 60 -32 c59 -31 65 -38 74 -93 7 -42 13 -41 19 1 10 59 -15 91 -102 130
l-73 33 5 -62 c6 -82 19 -114 59 -138 l33 -20 -27 0 c-32 0 -82 61 -144 175
-61 114 -84 147 -145 208 -88 88 -185 124 -272 102z m678 -521 c67 -12 70 -19
10 -24 -59 -5 -112 11 -100 30 5 8 19 7 90 -6z m529 5 c3 -2 -7 -11 -22 -19
-19 -11 -45 -14 -92 -10 l-65 5 55 13 c90 20 113 22 124 11z m-665 -23 c32
-24 32 -25 11 -36 -18 -10 -27 -7 -57 16 -33 25 -34 28 -17 35 28 11 27 11 63
-15z m772 14 c19 0 8 -16 -26 -38 -29 -18 -39 -20 -56 -11 -20 10 -20 12 13
34 18 13 39 22 46 20 8 -3 18 -5 23 -5z m-516 -61 c14 -7 5 -8 -30 -4 -27 3
-53 9 -58 14 -11 11 58 3 88 -10z m277 9 c-4 -4 -29 -9 -57 -12 l-50 -5 38 12
c42 14 81 17 69 5z m-357 -33 c33 -7 53 -14 45 -15 -49 -6 -76 -6 -125 3 -53
9 -68 20 -42 31 12 5 20 4 122 -19z m474 16 c11 -7 10 -11 -7 -20 -26 -14
-120 -21 -147 -10 -17 6 -17 8 -2 8 21 1 17 0 74 16 60 16 65 17 82 6z m-1154
-191 l20 -9 -20 0 c-11 -1 -33 -11 -50 -22 -17 -12 -21 -18 -10 -14 50 18 75
23 75 16 0 -14 -23 -28 -57 -36 -52 -11 -59 3 -22 41 36 37 35 37 64 24z
m1774 -24 c18 -19 29 -36 24 -39 -14 -9 -73 1 -89 14 -26 22 -14 28 27 14 57
-21 60 -18 15 10 -22 13 -44 21 -49 18 -6 -3 -7 -1 -3 5 13 21 41 13 75 -22z"/>
<path d="M303 1384 c-8 -22 10 -49 32 -49 10 0 22 7 28 16 15 24 1 49 -28 49
-15 0 -28 -7 -32 -16z"/>
<path d="M2456 1384 c-8 -22 12 -56 31 -52 22 4 38 32 30 52 -8 21 -53 21 -61
0z"/>
<path d="M318 1287 c-28 -23 -29 -47 -3 -59 29 -13 55 3 55 33 0 25 -33 42
-52 26z"/>
<path d="M2466 1284 c-20 -19 -20 -38 -1 -54 22 -18 55 -3 55 25 0 33 -33 51
-54 29z"/>
<path d="M374 1186 c-17 -44 23 -81 55 -52 29 26 10 65 -32 66 -10 0 -20 -6
-23 -14z"/>
<path d="M2386 1184 c-12 -12 -13 -20 -5 -35 15 -29 38 -34 59 -13 38 40 -15
87 -54 48z"/>
<path d="M470 375 c0 -63 4 -115 9 -115 5 0 23 14 40 31 26 26 31 38 31 78 0
50 -22 91 -61 111 -18 10 -19 6 -19 -105z m50 29 c11 -28 6 -72 -10 -88 -12
-12 -12 -15 -13 57 -2 61 7 73 23 31z"/>
<path d="M658 479 c-15 -8 -18 -24 -18 -79 0 -56 -3 -70 -15 -70 -8 0 -15 -5
-15 -10 0 -6 7 -13 15 -16 8 -4 15 -15 15 -25 0 -28 19 -23 26 6 3 14 10 25
15 25 5 0 9 -11 9 -25 0 -16 6 -25 15 -25 22 0 22 192 -1 214 -18 19 -23 19
-46 5z m32 -84 c0 -47 -4 -65 -13 -65 -9 0 -12 17 -11 63 2 72 1 67 14 67 6 0
10 -28 10 -65z"/>
<path d="M760 476 c-5 -5 -10 -56 -10 -113 0 -85 3 -103 15 -103 10 0 15 9 14
28 -4 75 2 172 11 172 6 0 10 -40 10 -100 0 -76 3 -100 13 -100 10 0 13 23 13
97 0 66 4 98 12 101 9 3 12 -23 12 -98 0 -76 3 -101 12 -98 14 5 20 189 7 210
-9 14 -95 18 -109 4z"/>
<path d="M917 476 c-10 -10 -13 -39 -12 -106 1 -77 4 -94 19 -106 13 -9 24
-10 37 -3 21 11 21 11 21 123 1 65 -3 82 -18 93 -23 16 -29 16 -47 -1z m43
-107 c0 -68 -3 -90 -12 -87 -9 3 -14 33 -16 91 -2 73 0 87 13 87 12 0 15 -16
15 -91z"/>
<path d="M1121 375 c-1 -63 2 -115 7 -115 23 0 62 45 72 80 8 30 7 47 -4 73
-13 33 -52 77 -67 77 -4 0 -8 -52 -8 -115z m56 1 c2 -18 -2 -39 -11 -51 -14
-18 -15 -15 -15 50 0 56 2 66 11 51 6 -10 12 -33 15 -50z"/>
<path d="M1653 375 c0 -89 3 -115 14 -115 7 0 13 9 13 20 0 12 12 31 26 44 21
18 27 31 27 66 0 36 -6 48 -32 72 -17 15 -35 28 -40 28 -5 0 -8 -52 -8 -115z
m52 36 c6 -26 -7 -71 -20 -71 -3 0 -5 23 -5 50 0 55 15 67 25 21z"/>
<path d="M1772 472 c-14 -14 -18 -32 -16 -80 2 -48 -1 -62 -12 -62 -18 0 -18
-17 0 -27 14 -8 16 -12 16 -33 0 -20 19 -9 22 13 4 29 22 29 26 -1 2 -13 9
-21 15 -19 19 6 16 205 -3 217 -21 14 -28 12 -48 -8z m37 -77 c1 -51 -2 -65
-14 -65 -12 0 -15 13 -15 58 0 56 5 72 21 72 4 0 7 -29 8 -65z"/>
<path d="M2297 466 c-53 -49 -53 -144 0 -186 14 -11 30 -20 34 -20 5 0 9 25 9
55 0 42 -3 55 -15 55 -11 0 -14 -9 -10 -37 l4 -38 -20 25 c-28 34 -21 96 15
127 26 22 34 43 17 43 -4 0 -20 -11 -34 -24z"/>
<path d="M571 370 c1 -84 4 -110 14 -110 10 0 14 26 14 110 0 87 -3 110 -14
110 -12 0 -14 -22 -14 -110z"/>
<path d="M1012 370 c2 -83 5 -110 15 -110 9 0 13 19 13 68 1 56 3 64 12 47 7
-11 12 -40 13 -64 0 -26 6 -46 13 -49 9 -3 12 24 12 107 0 61 -4 111 -9 111
-13 0 -21 -27 -15 -45 11 -29 -14 -15 -28 15 -7 17 -16 30 -20 30 -4 0 -6 -49
-6 -110z"/>
<path d="M1323 453 c-36 -55 -12 -193 33 -193 19 0 18 6 -8 41 -28 38 -28 101
1 140 25 33 26 39 6 39 -8 0 -22 -12 -32 -27z"/>
<path d="M1390 383 c0 -54 4 -103 8 -109 13 -19 41 -23 57 -8 21 21 22 214 1
214 -11 0 -13 -19 -12 -90 1 -50 -1 -96 -5 -102 -16 -26 -25 8 -24 96 1 73 -2
96 -12 96 -10 0 -13 -24 -13 -97z"/>
<path d="M1480 471 c0 -5 6 -11 12 -13 9 -3 13 -33 14 -94 2 -106 1 -104 14
-104 6 0 10 40 10 100 0 82 3 100 15 100 8 0 15 5 15 10 0 6 -18 10 -40 10
-22 0 -40 -4 -40 -9z"/>
<path d="M1868 463 c-6 -27 -2 -192 6 -200 15 -15 20 14 21 112 0 72 -4 105
-11 105 -7 0 -14 -8 -16 -17z"/>
<path d="M1925 373 c0 -74 4 -108 13 -111 9 -3 12 15 12 64 0 61 2 66 14 49 7
-11 12 -36 11 -56 -3 -38 9 -69 21 -56 6 6 7 38 5 180 -1 26 -5 37 -16 37 -11
0 -14 -8 -10 -30 3 -16 1 -30 -4 -30 -5 0 -15 14 -23 30 -7 17 -15 30 -18 30
-3 0 -6 -48 -5 -107z"/>
<path d="M2010 471 c0 -5 6 -11 13 -13 8 -3 13 -31 14 -84 2 -113 2 -114 13
-114 6 0 10 38 10 95 0 76 3 97 15 101 28 11 15 24 -25 24 -22 0 -40 -4 -40
-9z"/>
<path d="M2100 370 c0 -88 3 -110 14 -110 11 0 14 23 15 110 1 92 -1 110 -14
110 -12 0 -15 -18 -15 -110z"/>
<path d="M2156 372 c1 -86 4 -108 16 -110 12 -2 14 9 13 58 -2 79 19 75 23 -4
2 -39 7 -56 15 -53 17 5 17 217 0 217 -8 0 -13 -14 -13 -37 l-1 -38 -20 38
c-11 20 -23 37 -27 37 -4 0 -7 -48 -6 -108z"/>
</g>
</svg>
