<svg xmlns="http://www.w3.org/2000/svg" xmlns:xlink="http://www.w3.org/1999/xlink" viewBox="0,0,256,256" width="64px" height="64px"><g fill="#eba426" fill-rule="nonzero" stroke="none" stroke-width="1" stroke-linecap="butt" stroke-linejoin="miter" stroke-miterlimit="10" stroke-dasharray="" stroke-dashoffset="0" font-family="none" font-weight="none" font-size="none" text-anchor="none" style="mix-blend-mode: normal"><g transform="scale(2,2)"><path d="M22.09961,12.5c-3.9,0 -7,3.2 -7,7v20.19922c0,3.9 3.2,7 7,7h75.5c3.8,0.1 7,-3.09844 7,-6.89844v-20.30078c0,-3.9 -3.2,-7 -7,-7zM22,18.5h75.5c0.6,0 1,0.5 1,1v20.19922c0,0.6 -0.5,1 -1,1h-75.40039c-0.6,0.1 -1.09961,-0.39844 -1.09961,-0.89844v-20.30078c0,-0.6 0.5,-1 1,-1zM110.40039,27.69922c-1.7,0 -3,1.3 -3,3v14.30078c0,2.5 -1.80117,4.6 -4.20117,5l-37.79883,5.80078c-5.3,0.9 -9.20117,5.49844 -9.20117,10.89844v7.60156h-2.89844c-1.7,0 -3,1.3 -3,3v35c0,1.7 1.3,3 3,3h12c1.7,0 3,-1.3 3,-3v-35c0,-1.7 -1.3,-3 -3,-3h-3.10156v-7.60156c0,-2.4 1.80117,-4.49844 4.20117,-4.89844l37.79883,-5.80078c5.3,-0.9 9.20117,-5.50039 9.20117,-10.90039v-14.40039c0,-1.7 -1.3,-3 -3,-3zM56.30078,80.40039h3v29h-3z"></path></g></g></svg>