<svg xmlns="http://www.w3.org/2000/svg" xmlns:xlink="http://www.w3.org/1999/xlink" viewBox="0,0,256,256" width="50px" height="50px"><g fill="#eba426" fill-rule="nonzero" stroke="none" stroke-width="1" stroke-linecap="butt" stroke-linejoin="miter" stroke-miterlimit="10" stroke-dasharray="" stroke-dashoffset="0" font-family="none" font-weight="none" font-size="none" text-anchor="none" style="mix-blend-mode: normal"><g transform="scale(5.12,5.12)"><path d="M25,0c-9.75391,0 -17.72266,7.39063 -17.96875,16.5625c-0.00781,0.05078 0.00391,0.10547 0,0.15625c0,0.01172 0,0.01953 0,0.03125c-0.01562,0.0625 -0.02734,0.125 -0.03125,0.1875c0,0.01953 0,0.03906 0,0.0625c-0.00391,0.04297 -0.00391,0.08203 0,0.125v23.875c0,2.77734 2.30859,5.02734 5.5625,6.5625c3.25391,1.53516 7.60938,2.4375 12.4375,2.4375c4.82813,0 9.18359,-0.90234 12.4375,-2.4375c3.25391,-1.53516 5.5625,-3.78516 5.5625,-6.5625v-23.78125c0,-0.01953 0,-0.04297 0,-0.0625c0.00391,-0.05078 0.00391,-0.10547 0,-0.15625c0,-0.03125 0,-0.0625 0,-0.09375c0,-0.01172 0,-0.01953 0,-0.03125c-0.00391,-0.05469 -0.02734,-0.10156 -0.03125,-0.15625c-0.00391,-0.05078 0.00781,-0.10547 0,-0.15625c-0.24609,-9.17187 -8.21484,-16.5625 -17.96875,-16.5625zM25,2c7.51172,0 13.74609,4.84766 15.5,11.3125c-0.87891,-0.57422 -1.94531,-1.07422 -3.15625,-1.5c-3.22656,-1.14062 -7.55469,-1.8125 -12.34375,-1.8125c-4.78906,0 -9.11719,0.67188 -12.34375,1.8125c-1.21094,0.42578 -2.27734,0.92578 -3.15625,1.5c1.75391,-6.46484 7.98828,-11.3125 15.5,-11.3125zM25,12c4.59766,0 8.76172,0.65625 11.6875,1.6875c1.46484,0.51563 2.62109,1.14844 3.34375,1.75c0.69141,0.57813 0.94922,1.06641 0.96875,1.5c0,0.01953 0,0.04297 0,0.0625c0,0.03125 0,0.0625 0,0.09375c-0.03125,0.42578 -0.29297,0.90625 -0.96875,1.46875c-0.72266,0.60156 -1.87891,1.23438 -3.34375,1.75c-2.92578,1.03125 -7.08984,1.6875 -11.6875,1.6875c-4.59766,0 -8.76172,-0.65625 -11.6875,-1.6875c-1.46484,-0.51562 -2.62109,-1.14844 -3.34375,-1.75c-0.69141,-0.57812 -0.94922,-1.06641 -0.96875,-1.5c0,-0.01953 0,-0.04297 0,-0.0625c0,-0.03125 0,-0.0625 0,-0.09375c0.03125,-0.42578 0.29297,-0.90625 0.96875,-1.46875c0.72266,-0.60156 1.87891,-1.23437 3.34375,-1.75c2.92578,-1.03125 7.08984,-1.6875 11.6875,-1.6875zM9,20.3125c0.23828,0.17969 0.48047,0.36719 0.75,0.53125c0.01172,0.01172 0.01953,0.01953 0.03125,0.03125c0.67188,0.96875 0.91016,2.77344 1.28125,4.46875c0.18359,0.84766 0.38281,1.68359 0.90625,2.40625c0.52344,0.72266 1.46484,1.25 2.53125,1.25c1.63672,0 2.6875,-0.71484 3.28125,-1.28125c0.29688,-0.28125 0.51563,-0.49219 0.65625,-0.59375c0.14063,-0.10156 0.18359,-0.125 0.375,-0.125c0.26563,0 0.26563,0.03516 0.40625,0.21875c0.14063,0.18359 0.32813,0.58203 0.4375,1.15625c0.21875,1.14844 0.23047,2.88672 0.28125,4.65625c0.05078,1.76953 0.13281,3.58984 0.6875,5.125c0.27734,0.76563 0.67188,1.46875 1.3125,2c0.64063,0.53125 1.51563,0.84375 2.46875,0.84375c0.95313,0 1.8125,-0.30078 2.40625,-0.875c0.59375,-0.57422 0.87109,-1.34766 1.03125,-2.125c0.32031,-1.55078 0.17578,-3.32031 0.0625,-5.0625c-0.11328,-1.74219 -0.17187,-3.42187 0.125,-4.46875c0.14844,-0.52344 0.35547,-0.875 0.625,-1.09375c0.26953,-0.21875 0.64844,-0.375 1.34375,-0.375c0.08984,0 0.03125,0 0.03125,0c0,0 0.05859,0.05859 0.125,0.25c0.12891,0.38281 0.22656,1.13281 0.375,1.9375c0.14844,0.80469 0.35156,1.71484 0.96875,2.5c0.61719,0.78516 1.67188,1.3125 3,1.3125c1.42188,0 2.53125,-0.89453 3.03125,-1.96875c0.5,-1.07422 0.62891,-2.28516 0.75,-3.5625c0.24219,-2.55078 0.47656,-5.15625 1.78125,-6.3125c0.13672,-0.10547 0.24609,-0.24609 0.3125,-0.40625c0.22266,-0.14062 0.42578,-0.28516 0.625,-0.4375v20.6875c0,1.625 -1.50781,3.38281 -4.40625,4.75c-2.89844,1.36719 -7.01953,2.25 -11.59375,2.25c-4.57422,0 -8.69531,-0.88281 -11.59375,-2.25c-2.89844,-1.36719 -4.40625,-3.125 -4.40625,-4.75zM12.46875,22.125c0.0625,0.02344 0.125,0.03906 0.1875,0.0625c3.22656,1.14063 7.55469,1.8125 12.34375,1.8125c4.65625,0 8.86719,-0.63672 12.0625,-1.71875c-0.56641,1.63281 -0.63672,3.45313 -0.78125,5c-0.11719,1.23828 -0.27734,2.29297 -0.5625,2.90625c-0.28516,0.61328 -0.44141,0.8125 -1.21875,0.8125c-0.87109,0 -1.17187,-0.22266 -1.4375,-0.5625c-0.26562,-0.33984 -0.46484,-0.92969 -0.59375,-1.625c-0.12891,-0.69531 -0.1875,-1.44531 -0.4375,-2.1875c-0.125,-0.37109 -0.30469,-0.76562 -0.65625,-1.09375c-0.35156,-0.32812 -0.86719,-0.53125 -1.375,-0.53125c-1.03125,0 -1.92578,0.26563 -2.59375,0.8125c-0.66797,0.54688 -1.05859,1.30469 -1.28125,2.09375c-0.44531,1.57813 -0.33203,3.39844 -0.21875,5.15625c0.11328,1.75781 0.22266,3.48828 0,4.5625c-0.10937,0.53516 -0.30078,0.87109 -0.5,1.0625c-0.19922,0.19141 -0.42969,0.3125 -1,0.3125c-0.57031,0 -0.90625,-0.14062 -1.1875,-0.375c-0.28125,-0.23437 -0.52344,-0.60937 -0.71875,-1.15625c-0.39453,-1.08984 -0.51172,-2.76953 -0.5625,-4.5c-0.05078,-1.73047 -0.03125,-3.49219 -0.3125,-4.96875c-0.14062,-0.73828 -0.36719,-1.41797 -0.8125,-2c-0.44531,-0.58203 -1.19141,-1 -2,-1c-0.60937,0 -1.18359,0.22656 -1.5625,0.5c-0.37891,0.27344 -0.61719,0.5625 -0.84375,0.78125c-0.45703,0.43359 -0.74609,0.71875 -1.90625,0.71875c-0.53516,0 -0.67969,-0.125 -0.90625,-0.4375c-0.22656,-0.3125 -0.42969,-0.90234 -0.59375,-1.65625c-0.17969,-0.82031 -0.28125,-1.79297 -0.53125,-2.78125z"></path></g></g></svg>