<svg xmlns="http://www.w3.org/2000/svg" xmlns:xlink="http://www.w3.org/1999/xlink" viewBox="0,0,256,256" width="50px" height="50px"><g fill="#eba426" fill-rule="nonzero" stroke="none" stroke-width="1" stroke-linecap="butt" stroke-linejoin="miter" stroke-miterlimit="10" stroke-dasharray="" stroke-dashoffset="0" font-family="none" font-weight="none" font-size="none" text-anchor="none" style="mix-blend-mode: normal"><g transform="scale(5.12,5.12)"><path d="M22.87891,4.30078c-3.685,0.083 -6.37886,1.20866 -8.00586,3.34766c-1.926,2.534 -2.28617,6.41783 -1.07617,11.54883c-0.413,0.531 -0.7845,1.37911 -0.6875,2.53711c0.295,2.165 1.11906,3.05497 1.78906,3.41797c0.338,1.803 1.32108,3.71033 2.20508,4.61133c0.002,0.224 0.00577,0.43839 0.00977,0.65039c0.018,0.957 0.0332,1.78856 -0.0918,2.85156c-0.548,1.403 -2.58173,2.21063 -4.92773,3.14063c-3.902,1.546 -8.7578,3.47006 -9.0918,9.53906l-0.05859,1.05469h33.05664v-2h-10.23633c-0.49833,-3.24292 -2.26367,-6.19922 -2.26367,-6.19922l0.75781,-0.61523l1.96289,2.44141c0.18845,0.23435 0.47235,0.37146 0.77307,0.37335c0.30072,0.00189 0.58632,-0.13163 0.77771,-0.36359l2.85352,-3.45898c0.79422,0.37831 1.64678,0.72409 2.52344,1.07031c0.964,0.381 1.93652,0.76694 2.85352,1.21094v-2.20117c-0.715,-0.315 -1.43119,-0.59814 -2.11719,-0.86914c-2.335,-0.922 -4.36209,-1.72223 -4.99609,-3.11523c-0.079,-1.32 -0.08689,-2.30058 -0.08789,-3.51758c0.868,-0.913 1.78592,-2.8255 2.16992,-4.5625c0.718,-0.34 1.61817,-1.22377 1.82617,-3.50977c0.094,-1.125 -0.21558,-1.95233 -0.64258,-2.48633c0.849,-2.728 1.59488,-7.40205 -0.20312,-10.37305c-0.853,-1.409 -2.15314,-2.29567 -3.86914,-2.63867c-0.966,-1.22 -2.78213,-1.88477 -5.20312,-1.88477zM22.89844,6.29688c1.891,0 3.25233,0.47473 3.73633,1.30273l0.24609,0.41992l0.47852,0.06641c1.332,0.188 2.27386,0.76653 2.88086,1.76953c1.449,2.396 0.68441,6.87569 -0.18359,9.30469l-0.31641,0.82422l0.79297,0.39648c0.089,0.063 0.32953,0.409 0.26953,1.125c-0.134,1.479 -0.60213,1.87262 -0.70312,1.89063h-0.86719l-0.12305,0.85938c-0.275,1.925 -1.42964,3.89787 -1.80664,4.17188l-0.50195,0.29102v0.58203c0,1.02049 0.01063,1.89477 0.04102,2.82031l-3.8418,2.13477l-3.89453,-2.16406c0.01962,-0.58938 0.01831,-1.14828 0.00781,-1.71289c-0.006,-0.344 -0.01367,-0.69813 -0.01367,-1.07812l-0.0625,-0.56445l-0.42969,-0.29883c-0.391,-0.271 -1.6345,-2.26581 -1.8125,-4.13281l-0.01367,-0.89648h-0.9082c-0.142,-0.056 -0.59034,-0.52858 -0.77734,-1.89258c-0.07,-0.838 0.35842,-1.18555 0.35742,-1.18555l0.58984,-0.39258l-0.17578,-0.68555c-1.211,-4.784 -1.00934,-8.28148 0.59766,-10.39648c1.24,-1.63 3.41059,-2.48959 6.43359,-2.55859zM42,20c-4.42992,0 -8,3.57008 -8,8c0,2.96953 1.60793,5.54731 4,6.92773v12.07227c0.00005,0.2652 0.10543,0.51952 0.29297,0.70703l2,2c0.18751,0.18754 0.44183,0.29292 0.70703,0.29297h2c0.2652,-0.00005 0.51952,-0.10543 0.70703,-0.29297l2,-2c0.18754,-0.18751 0.29292,-0.44183 0.29297,-0.70703v-2c-0.00005,-0.2652 -0.10543,-0.51952 -0.29297,-0.70703l-0.79297,-0.79297l0.79297,-0.79297c0.18754,-0.18751 0.29292,-0.44183 0.29297,-0.70703v-2c-0.00001,-0.19742 -0.05846,-0.39042 -0.16797,-0.55469l-0.63086,-0.94531l0.63086,-0.94531c0.10951,-0.16426 0.16795,-0.35727 0.16797,-0.55469v-2.07227c2.39207,-1.38043 4,-3.9582 4,-6.92773c0,-4.42992 -3.57008,-8 -8,-8zM42,22c3.37009,0 6,2.62992 6,6c0,3.37008 -2.62991,6 -6,6c-3.37009,0 -6,-2.62992 -6,-6c0,-3.37008 2.62991,-6 6,-6zM42,24c-1.10457,0 -2,0.89543 -2,2c0,1.10457 0.89543,2 2,2c1.10457,0 2,-0.89543 2,-2c0,-1.10457 -0.89543,-2 -2,-2zM18.77344,34.19531l2.49609,1.38672l-2.2793,2.83398l-1.86719,-2.26367c0.72246,-0.53296 1.29201,-1.16844 1.65039,-1.95703zM27.15625,34.23438c0.38745,0.77714 0.97683,1.40482 1.71094,1.93164l-1.85742,2.25l-2.2793,-2.83398zM40,35.73828c0.6402,0.16417 1.30741,0.26172 2,0.26172c0.69259,0 1.3598,-0.09755 2,-0.26172v0.95898l-0.83203,1.24805c-0.2239,0.3359 -0.2239,0.77347 0,1.10938l0.83203,1.24805v1.2832l-1.20703,1.20703c-0.39037,0.39053 -0.39037,1.02353 0,1.41406l1.20703,1.20703v1.17188l-1.41406,1.41406h-1.17188l-1.41406,-1.41406zM15.37695,37.17969l2.85156,3.45703c0.19139,0.23196 0.47699,0.36548 0.77771,0.36359c0.30072,-0.00189 0.58462,-0.139 0.77307,-0.37335l1.96289,-2.44141l0.75781,0.61523c0,0 -1.75287,3.01058 -2.25781,6.19922h-15.12109c0.734,-3.972 4.27598,-5.37437 7.70898,-6.73437c0.88622,-0.35131 1.74813,-0.70091 2.54688,-1.08594z"></path></g></g></svg>