<svg fill="#FFFFFF" xmlns="http://www.w3.org/2000/svg"  viewBox="0 0 66 66" width="66px" height="66px"><path d="M 34.009766 1.9902344 C 33.209766 1.9902344 32.459766 2.3907812 32.009766 3.0507812 L 31.109375 4.3691406 L 29.580078 4.8203125 C 28.810078 5.0503125 28.210938 5.6403906 27.960938 6.4003906 C 27.710937 7.1603906 27.849844 8.000625 28.339844 8.640625 L 29.310547 9.9003906 L 29.269531 11.5 C 29.249531 12.3 29.619531 13.059297 30.269531 13.529297 C 30.689531 13.829297 31.189219 13.990234 31.699219 13.990234 C 31.969219 13.990234 32.249531 13.949844 32.519531 13.839844 L 34.019531 13.300781 L 35.529297 13.839844 C 36.279297 14.109844 37.119531 13.989531 37.769531 13.519531 C 38.419531 13.049531 38.789531 12.290234 38.769531 11.490234 L 38.720703 9.9003906 L 39.679688 8.6308594 C 40.159687 8.0008594 40.310547 7.1603906 40.060547 6.4003906 C 39.810547 5.6403906 39.209453 5.0503125 38.439453 4.8203125 L 36.910156 4.3691406 L 36.009766 3.0507812 C 35.559766 2.3907813 34.809766 1.9902344 34.009766 1.9902344 z M 34.009766 4.4296875 L 34.919922 5.7597656 C 35.239922 6.2197656 35.710234 6.5607031 36.240234 6.7207031 L 37.769531 7.1601562 L 36.800781 8.4296875 C 36.460781 8.8796875 36.280781 9.4304687 36.300781 9.9804688 L 36.349609 11.570312 L 34.839844 11.029297 C 34.309844 10.839297 33.730938 10.839297 33.210938 11.029297 L 31.710938 11.570312 L 31.75 9.9707031 C 31.77 9.4107031 31.59 8.8599219 31.25 8.4199219 L 30.269531 7.1601562 L 31.800781 6.7109375 C 32.340781 6.5509375 32.809141 6.21 33.119141 5.75 L 34.009766 4.4296875 z M 17 8.4492188 C 16.25 8.4492188 15.539375 8.8292188 15.109375 9.4492188 L 14.140625 10.910156 L 12.380859 11.429688 C 11.660859 11.639687 11.079609 12.199922 10.849609 12.919922 C 10.609609 13.639922 10.750937 14.429297 11.210938 15.029297 L 12.300781 16.400391 L 12.25 18.240234 C 12.23 19.000234 12.589219 19.710156 13.199219 20.160156 C 13.809219 20.610156 14.600312 20.720703 15.320312 20.470703 L 16.960938 19.849609 L 18.689453 20.470703 C 18.939453 20.560703 19.200937 20.599609 19.460938 20.599609 C 19.940937 20.599609 20.410781 20.449922 20.800781 20.169922 C 21.420781 19.719922 21.77 19.01 21.75 18.25 L 21.669922 16.5 L 22.789062 15.039062 C 23.249063 14.439062 23.380391 13.649688 23.150391 12.929688 C 22.920391 12.209687 22.349141 11.649453 21.619141 11.439453 L 19.929688 10.970703 L 18.890625 9.4492188 C 18.470625 8.8192188 17.76 8.4492188 17 8.4492188 z M 51.019531 8.5898438 C 50.189531 8.5898438 49.419219 8.9996875 48.949219 9.6796875 L 48.089844 10.919922 L 46.679688 11.330078 C 45.889688 11.570078 45.269766 12.180938 45.009766 12.960938 C 44.759766 13.740937 44.910156 14.599766 45.410156 15.259766 L 46.320312 16.460938 L 46.279297 17.919922 C 46.259297 18.739922 46.640547 19.519766 47.310547 20.009766 C 47.980547 20.489766 48.839141 20.619844 49.619141 20.339844 L 51.050781 19.849609 L 52.429688 20.339844 C 52.709688 20.429844 52.989531 20.480469 53.269531 20.480469 C 53.789531 20.480469 54.310703 20.319531 54.720703 20.019531 C 55.390703 19.539531 55.77 18.749688 55.75 17.929688 L 55.720703 16.419922 L 56.619141 15.259766 C 57.129141 14.599766 57.279531 13.750937 57.019531 12.960938 C 56.769531 12.170937 56.139609 11.560078 55.349609 11.330078 L 53.910156 10.890625 L 53.080078 9.6796875 C 52.620078 8.9996875 51.849531 8.5898438 51.019531 8.5898438 z M 17 10.990234 L 17.929688 12.339844 C 18.219687 12.769844 18.669922 13.090234 19.169922 13.240234 L 20.740234 13.699219 L 19.740234 15 C 19.410234 15.42 19.249766 15.940703 19.259766 16.470703 L 19.310547 18.109375 L 17.769531 17.560547 C 17.279531 17.380547 16.730469 17.380547 16.230469 17.560547 L 14.689453 18.109375 L 14.740234 16.470703 C 14.750234 15.940703 14.579766 15.429766 14.259766 15.009766 L 13.259766 13.710938 L 14.839844 13.240234 C 15.339844 13.090234 15.780078 12.769844 16.080078 12.339844 L 17 10.990234 z M 51.029297 11.009766 C 51.059297 11.009766 51.070078 11.029063 51.080078 11.039062 L 51.910156 12.25 C 52.240156 12.72 52.719531 13.070469 53.269531 13.230469 L 54.710938 13.75 L 53.820312 14.910156 C 53.470312 15.370156 53.280781 15.939766 53.300781 16.509766 L 53.25 18.039062 L 51.869141 17.550781 C 51.599141 17.460781 51.309297 17.410156 51.029297 17.410156 C 50.749297 17.410156 50.459453 17.450781 50.189453 17.550781 L 48.720703 17.980469 L 48.759766 16.509766 C 48.769766 15.939766 48.590234 15.369922 48.240234 14.919922 L 47.380859 13.650391 L 48.789062 13.240234 C 49.349063 13.070234 49.830391 12.72 50.150391 12.25 L 51.029297 11.009766 z M 32.972656 16.46875 C 32.6975 16.472969 32.429453 16.553438 32.189453 16.710938 C 31.859453 16.920938 31.630078 17.270078 31.580078 17.580078 C 29.391156 26.425532 25.417773 30.934968 23.119141 32.931641 L 23.119141 32.339844 C 23.119141 29.639844 20.930469 27.449219 18.230469 27.449219 L 13.189453 27.449219 C 10.489453 27.449219 8.3007812 29.639844 8.3007812 32.339844 L 8.3007812 59.109375 C 8.3007813 61.809375 10.489453 64 13.189453 64 L 18.230469 64 C 20.465442 64 22.334885 62.479912 22.916016 60.419922 C 24.751201 61.528786 26.840976 62.119141 28.990234 62.119141 C 29.030234 62.119141 29.069609 62.119844 29.099609 62.089844 L 45.419922 62.089844 C 46.599922 62.089844 47.709063 61.630781 48.539062 60.800781 C 49.369062 59.960781 49.830078 58.859687 49.830078 57.679688 C 49.830078 56.959688 49.659609 56.279688 49.349609 55.679688 C 50.319609 55.559687 51.219922 55.119922 51.919922 54.419922 C 52.749922 53.579922 53.210938 52.480781 53.210938 51.300781 C 53.210938 50.590781 53.040234 49.920313 52.740234 49.320312 L 53.310547 49.320312 C 54.500547 49.320312 55.609922 48.859063 56.419922 48.039062 C 57.489922 46.979063 57.939375 45.449219 57.609375 43.949219 C 57.289375 42.499219 56.210078 41.340313 54.830078 40.820312 C 55.200078 40.220312 55.410938 39.540078 55.460938 38.830078 C 55.540937 37.660078 55.119062 36.520859 54.289062 35.630859 C 53.399063 34.680859 52.149375 34.140625 50.859375 34.140625 L 36.869141 34.140625 C 37.329141 31.740625 38.070078 29.310156 39.080078 26.910156 C 39.480078 25.960156 39.679688 24.969219 39.679688 23.949219 C 39.679688 20.219219 36.89 17.010234 33.25 16.490234 C 33.1575 16.475234 33.064375 16.467344 32.972656 16.46875 z M 33.689453 19.070312 C 35.759453 19.740312 37.230469 21.699687 37.230469 23.929688 C 37.230469 24.619687 37.090313 25.289453 36.820312 25.939453 C 35.540312 28.989453 34.660938 32.090391 34.210938 35.150391 C 34.200938 35.210391 34.199219 35.279844 34.199219 35.339844 C 34.199219 36.009844 34.749922 36.560547 35.419922 36.560547 L 50.849609 36.560547 C 51.469609 36.560547 52.07 36.819297 52.5 37.279297 C 52.87 37.669297 53.049531 38.160156 53.019531 38.660156 C 52.979531 39.140156 52.779453 39.589687 52.439453 39.929688 C 52.059453 40.299687 51.569063 40.509766 51.039062 40.509766 C 50.973627 40.509766 50.912096 40.519494 50.849609 40.529297 L 44.300781 40.529297 C 43.620781 40.529297 43.080078 41.08 43.080078 41.75 C 43.080078 42.42 43.630781 42.970703 44.300781 42.970703 L 51.050781 42.970703 C 51.088315 42.970703 51.119602 42.952538 51.15625 42.949219 L 53.150391 42.949219 C 54.160391 42.949219 55.030703 43.590703 55.220703 44.470703 C 55.370703 45.150703 55.169688 45.840313 54.679688 46.320312 C 54.319688 46.690313 53.819063 46.890625 53.289062 46.890625 L 48.779297 46.890625 C 48.708464 46.890625 48.641562 46.898707 48.574219 46.910156 L 42.039062 46.910156 C 41.359062 46.910156 40.820312 47.460859 40.820312 48.130859 C 40.820312 48.800859 41.369062 49.349609 42.039062 49.349609 L 48.789062 49.349609 C 48.819655 49.349609 48.848855 49.342096 48.878906 49.339844 C 49.922105 49.393052 50.759766 50.254592 50.759766 51.310547 C 50.759766 51.840547 50.549687 52.340938 50.179688 52.710938 C 49.799688 53.080937 49.309297 53.289062 48.779297 53.289062 L 45.400391 53.289062 L 38.650391 53.289062 C 37.970391 53.289062 37.429688 53.839766 37.429688 54.509766 C 37.429688 55.179766 37.980391 55.730469 38.650391 55.730469 L 45.400391 55.730469 C 46.485845 55.735873 47.369141 56.622512 47.369141 57.699219 C 47.369141 58.229219 47.159062 58.729609 46.789062 59.099609 C 46.409063 59.469609 45.920625 59.679688 45.390625 59.679688 L 28.669922 59.679688 C 27.049922 59.619687 25.470078 59.149766 24.080078 58.259766 L 23.119141 57.666016 L 23.119141 36.011719 C 25.056977 34.724161 30.693735 30.154469 33.689453 19.070312 z M 13.179688 29.890625 L 18.220703 29.890625 C 19.570703 29.890625 20.669922 30.989844 20.669922 32.339844 L 20.669922 59.109375 C 20.669922 60.459375 19.570703 61.560547 18.220703 61.560547 L 13.179688 61.560547 C 11.829687 61.560547 10.730469 60.459375 10.730469 59.109375 L 10.730469 32.339844 C 10.730469 30.989844 11.829688 29.890625 13.179688 29.890625 z"/></svg>