<?xml version="1.0"?><svg fill="#FFFFFF" xmlns="http://www.w3.org/2000/svg"  viewBox="0 0 30 30" width="30px" height="30px">    <path d="M27.951,10.997c-0.105-0.322-0.365-0.569-0.692-0.657l-7.303-1.956l-4.117-6.341c-0.369-0.568-1.309-0.568-1.678,0 l-4.117,6.341L2.741,10.34c-0.327,0.087-0.587,0.334-0.692,0.657c-0.104,0.322-0.039,0.675,0.174,0.938l4.759,5.875l-0.396,7.55 c-0.018,0.338,0.137,0.662,0.411,0.861c0.274,0.2,0.63,0.245,0.946,0.125L15,23.636l7.058,2.71c0.116,0.044,0.237,0.066,0.358,0.066 c0.208,0,0.415-0.065,0.588-0.191c0.274-0.199,0.429-0.523,0.411-0.861l-0.396-7.55l4.759-5.875 C27.99,11.672,28.056,11.319,27.951,10.997z M15.067,19.239c-1.84,0-3.094-1.107-3.146-2.619h1.635 c0.1,0.703,0.721,1.172,1.523,1.172c0.908,0,1.535-0.609,1.535-1.529c0-0.932-0.633-1.553-1.529-1.553 c-0.656,0-1.154,0.287-1.447,0.762h-1.582l0.422-4.904h5.314v1.471h-3.943l-0.188,2.174h0.105c0.357-0.516,0.955-0.826,1.793-0.826 c1.605,0,2.742,1.178,2.742,2.836C18.302,18.014,17.007,19.239,15.067,19.239z"/></svg>