<svg xmlns="http://www.w3.org/2000/svg" xmlns:xlink="http://www.w3.org/1999/xlink" viewBox="0,0,256,256" width="50px" height="50px"><g fill="#eba426" fill-rule="nonzero" stroke="none" stroke-width="1" stroke-linecap="butt" stroke-linejoin="miter" stroke-miterlimit="10" stroke-dasharray="" stroke-dashoffset="0" font-family="none" font-weight="none" font-size="none" text-anchor="none" style="mix-blend-mode: normal"><g transform="scale(2.56,2.56)"><path d="M50,13.92c-19.895,0 -36.08,16.186 -36.08,36.08c0,6.186 1.601,12.297 4.627,17.672l0.966,1.715l0.034,-0.057c6.599,10.377 18.093,16.749 30.453,16.749c6.552,0 12.724,-1.736 18.053,-4.803l0.257,-0.076l-0.016,-0.058c8.833,-5.174 15.289,-14.037 17.204,-24.739l0.011,-0.009l0.073,-0.438c0.331,-1.989 0.498,-3.993 0.498,-5.956c-0.001,-19.894 -16.185,-36.08 -36.08,-36.08zM82.76,58.433c-0.883,3.466 -2.29,6.692 -4.118,9.607h-0.454c-5.258,0 -8.965,1.399 -11.019,4.161c-2.135,2.869 -1.797,6.315 -1.51,7.811c-1.755,0.912 -3.596,1.675 -5.511,2.271v-7.478c0,-1.698 0.862,-2.932 1.953,-4.495c1.132,-1.621 2.493,-3.579 2.901,-6.458c0.201,0.075 0.401,0.151 0.609,0.211c0.102,0.03 0.208,0.05 0.312,0.076c0.205,0.052 0.409,0.103 0.62,0.141c0.127,0.023 0.257,0.037 0.386,0.055c0.195,0.027 0.391,0.053 0.591,0.069c0.14,0.011 0.283,0.015 0.426,0.02c0.196,0.008 0.393,0.013 0.595,0.01c0.15,-0.003 0.301,-0.01 0.454,-0.018c0.202,-0.011 0.406,-0.026 0.612,-0.047c0.157,-0.016 0.314,-0.035 0.474,-0.056c0.211,-0.029 0.425,-0.064 0.641,-0.103c0.161,-0.03 0.321,-0.059 0.484,-0.093c0.224,-0.048 0.452,-0.104 0.681,-0.163c0.161,-0.041 0.321,-0.08 0.485,-0.127c0.245,-0.07 0.495,-0.151 0.745,-0.233c0.154,-0.05 0.306,-0.096 0.462,-0.151c0.292,-0.103 0.591,-0.22 0.89,-0.338c0.119,-0.047 0.236,-0.088 0.356,-0.138c0.424,-0.175 0.854,-0.365 1.291,-0.572c0.075,-0.035 0.153,-0.077 0.229,-0.114c0.364,-0.175 0.73,-0.358 1.103,-0.554c0.155,-0.081 0.315,-0.173 0.471,-0.258c0.299,-0.163 0.598,-0.327 0.903,-0.503c0.183,-0.106 0.369,-0.219 0.554,-0.33c0.285,-0.171 0.572,-0.343 0.862,-0.525c0.197,-0.124 0.398,-0.254 0.597,-0.383c0.285,-0.184 0.572,-0.372 0.862,-0.568c0.207,-0.139 0.416,-0.283 0.625,-0.427c0.146,-0.101 0.289,-0.195 0.438,-0.3zM67.763,78.821c-0.144,-1.355 -0.098,-3.522 1.225,-5.289c1.471,-1.966 4.192,-3.041 8.088,-3.21c-2.545,3.398 -5.706,6.281 -9.313,8.499zM54.51,83.526v-16.614h-2.255v16.831c-0.746,0.049 -1.497,0.081 -2.255,0.081c-7.334,0 -14.342,-2.396 -20.069,-6.619c0.735,-0.738 2.437,-1.981 5.138,-1.307l1.094,0.274l0.547,-2.188l-1.094,-0.273c-3.975,-0.995 -6.454,1.008 -7.461,2.092c-2.87,-2.427 -5.358,-5.343 -7.317,-8.672c0,-0.001 -0.001,-0.002 -0.002,-0.003c0.025,-0.04 0.05,-0.078 0.074,-0.118c0.079,-0.128 0.157,-0.253 0.236,-0.377c0.081,-0.128 0.162,-0.256 0.243,-0.381c0.078,-0.119 0.156,-0.235 0.234,-0.351c0.082,-0.122 0.164,-0.243 0.246,-0.36c0.078,-0.112 0.156,-0.221 0.234,-0.328c0.082,-0.115 0.165,-0.228 0.247,-0.338c0.078,-0.104 0.154,-0.205 0.232,-0.305c0.083,-0.107 0.166,-0.213 0.249,-0.316c0.077,-0.096 0.154,-0.19 0.231,-0.282c0.083,-0.1 0.165,-0.196 0.249,-0.292c0.076,-0.088 0.153,-0.174 0.229,-0.258c0.083,-0.092 0.166,-0.18 0.249,-0.269c0.075,-0.079 0.151,-0.158 0.226,-0.234c0.083,-0.084 0.166,-0.164 0.249,-0.244c0.075,-0.071 0.149,-0.142 0.223,-0.21c0.083,-0.075 0.166,-0.147 0.248,-0.218c0.073,-0.063 0.146,-0.126 0.218,-0.185c0.083,-0.067 0.165,-0.13 0.247,-0.193c0.072,-0.054 0.143,-0.109 0.215,-0.16c0.083,-0.059 0.164,-0.112 0.246,-0.166c0.069,-0.046 0.139,-0.093 0.208,-0.135c0.082,-0.051 0.164,-0.095 0.247,-0.14c0.066,-0.037 0.134,-0.076 0.2,-0.109c0.084,-0.042 0.167,-0.076 0.25,-0.113c0.063,-0.028 0.127,-0.058 0.189,-0.082c0.086,-0.034 0.171,-0.058 0.256,-0.085c0.058,-0.018 0.116,-0.04 0.173,-0.055c0.095,-0.025 0.187,-0.041 0.28,-0.058c0.046,-0.008 0.093,-0.021 0.139,-0.028c0.138,-0.019 0.274,-0.029 0.408,-0.029c1.068,0 1.844,1.356 2.997,3.59c1.3,2.521 2.774,5.378 5.81,6.308c0.259,0.08 0.525,0.139 0.795,0.186c0.033,0.006 0.064,0.013 0.097,0.018c0.261,0.041 0.528,0.067 0.8,0.078c0.041,0.002 0.083,0.003 0.124,0.004c0.562,0.014 1.149,-0.037 1.761,-0.15c0.078,-0.014 0.156,-0.031 0.235,-0.048c0.25,-0.052 0.503,-0.114 0.761,-0.188c0.062,-0.018 0.123,-0.032 0.186,-0.051c0.314,-0.094 0.635,-0.204 0.961,-0.329c0.071,-0.027 0.145,-0.059 0.217,-0.088c0.266,-0.106 0.536,-0.222 0.81,-0.348c0.095,-0.043 0.189,-0.086 0.284,-0.132c0.344,-0.165 0.693,-0.339 1.051,-0.534c3.334,-1.819 5.325,-4.347 5.916,-7.515c0.367,-1.965 0.145,-3.979 -0.372,-5.881c1.041,-0.025 2.068,-0.139 3.078,-0.34c0.027,-0.006 0.055,-0.009 0.082,-0.015l0.187,-0.037l0.15,-0.03l0.566,-0.115v-0.029c1.074,-0.279 2.126,-0.652 3.151,-1.133c0.39,-0.183 0.773,-0.38 1.146,-0.589l0.218,2.395c0.002,0.012 0.003,0.025 0.004,0.039c0.026,0.207 0.596,4.406 3.827,6.891c-0.148,2.831 -1.396,4.618 -2.605,6.349c-1.159,1.661 -2.358,3.379 -2.358,5.786v8.094c-1.106,0.267 -2.234,0.479 -3.38,0.631zM50,16.176c18.651,0 33.825,15.174 33.825,33.824c0,1.694 -0.134,3.422 -0.397,5.143c-0.182,0.139 -0.363,0.272 -0.543,0.407c-0.245,0.183 -0.492,0.368 -0.734,0.544c-0.238,0.172 -0.472,0.335 -0.707,0.5c-0.234,0.166 -0.47,0.333 -0.701,0.491c-0.233,0.158 -0.461,0.307 -0.69,0.459c-0.228,0.151 -0.458,0.305 -0.683,0.448c-0.223,0.143 -0.441,0.274 -0.66,0.409c-0.225,0.139 -0.451,0.28 -0.672,0.41c-0.212,0.126 -0.42,0.242 -0.63,0.36c-0.221,0.125 -0.443,0.254 -0.661,0.371c-0.202,0.11 -0.399,0.209 -0.598,0.311c-0.217,0.112 -0.436,0.228 -0.65,0.332c-0.19,0.093 -0.376,0.175 -0.563,0.262c-0.215,0.099 -0.431,0.202 -0.641,0.293c-0.178,0.077 -0.35,0.142 -0.525,0.213c-0.212,0.086 -0.426,0.175 -0.634,0.252c-0.165,0.062 -0.325,0.112 -0.488,0.167c-0.209,0.072 -0.42,0.147 -0.625,0.209c-0.154,0.047 -0.302,0.082 -0.454,0.123c-0.205,0.056 -0.411,0.116 -0.611,0.162c-0.145,0.034 -0.284,0.056 -0.426,0.084c-0.198,0.039 -0.398,0.082 -0.591,0.112c-0.138,0.021 -0.27,0.03 -0.405,0.045c-0.189,0.022 -0.38,0.048 -0.563,0.06c-0.135,0.008 -0.262,0.004 -0.394,0.007c-0.176,0.004 -0.355,0.013 -0.525,0.007c-0.135,-0.005 -0.262,-0.023 -0.394,-0.034c-0.158,-0.013 -0.32,-0.02 -0.474,-0.042c-0.149,-0.022 -0.29,-0.058 -0.434,-0.089c-0.128,-0.026 -0.259,-0.046 -0.383,-0.079c-0.263,-0.071 -0.519,-0.157 -0.765,-0.258c-0.168,-0.07 -0.323,-0.152 -0.479,-0.234v-0.472h-0.768c-0.066,-0.049 -0.127,-0.104 -0.191,-0.155c-0.105,-0.084 -0.212,-0.166 -0.31,-0.255c-0.074,-0.067 -0.14,-0.139 -0.21,-0.209c-0.084,-0.083 -0.171,-0.165 -0.249,-0.252c-0.073,-0.08 -0.138,-0.163 -0.205,-0.245c-0.066,-0.08 -0.135,-0.159 -0.196,-0.241c-0.071,-0.093 -0.134,-0.188 -0.199,-0.282c-0.05,-0.073 -0.103,-0.145 -0.15,-0.218c-0.069,-0.107 -0.13,-0.213 -0.193,-0.321c-0.036,-0.061 -0.073,-0.122 -0.107,-0.182c-0.067,-0.121 -0.126,-0.24 -0.185,-0.36c-0.022,-0.045 -0.046,-0.091 -0.068,-0.135c-0.064,-0.135 -0.122,-0.267 -0.177,-0.398c-0.011,-0.026 -0.023,-0.052 -0.034,-0.078c-0.062,-0.15 -0.117,-0.294 -0.167,-0.434c-0.002,-0.004 -0.003,-0.008 -0.005,-0.013c-0.041,-0.114 -0.077,-0.224 -0.112,-0.33c-0.02,-0.062 -0.037,-0.121 -0.055,-0.18c-0.012,-0.04 -0.025,-0.081 -0.037,-0.12c-0.025,-0.086 -0.048,-0.169 -0.068,-0.248c-0.001,-0.004 -0.003,-0.009 -0.004,-0.013c-0.111,-0.425 -0.158,-0.717 -0.169,-0.79l-0.325,-3.577c4.402,-3.373 7.1,-8.676 7.1,-14.347c0,-2.655 -0.576,-5.229 -1.711,-7.649l-0.479,-1.021l-1.058,0.497l-0.983,0.462l0.479,1.021c0.994,2.118 1.498,4.369 1.498,6.691c0,4.46 -1.912,8.655 -5.095,11.603v0c-0.337,0.312 -0.685,0.616 -1.05,0.899c-0.342,0.266 -0.697,0.516 -1.063,0.753c0,0.001 -0.001,0.001 -0.001,0.001c-0.597,0.388 -1.222,0.74 -1.877,1.048c-0.716,0.335 -1.449,0.611 -2.193,0.834v-5.159l3.712,-0.655v0l0.148,-0.026c0.34,-0.049 0.656,-0.159 0.954,-0.3c0.404,-0.192 0.765,-0.454 1.062,-0.78v0c0.551,-0.606 0.889,-1.404 0.889,-2.269v-2.511l1.124,-14.766c0.004,-0.056 0.002,-0.111 -0.002,-0.166c-0.033,-0.457 -0.339,-0.856 -0.787,-0.996c-0.082,-0.026 -0.163,-0.042 -0.277,-0.056c-0.14,-0.017 -0.329,-0.028 -0.639,-0.047c-0.203,-0.011 -0.42,-0.022 -0.567,-0.035l-0.934,-0.483c-1.046,-0.54 -2.623,-0.54 -3.67,0l-1.092,0.564c-0.403,0.21 -1.195,0.208 -1.599,0l-1.091,-0.564c-1.047,-0.54 -2.624,-0.54 -3.67,0l-1.093,0.564c-0.395,0.205 -1.201,0.206 -1.599,0l-1.092,-0.564c-1.046,-0.54 -2.624,-0.54 -3.67,0l-0.893,0.461c-0.119,0.005 -0.273,0.009 -0.425,0.013c-0.25,0.008 -0.421,0.013 -0.55,0.021c-0.211,0.013 -0.308,0.035 -0.439,0.087c-0.426,0.169 -0.692,0.579 -0.7,1.03c0,0.035 -0.011,0.068 -0.008,0.103l1.124,14.832v2.512c0,1.673 1.249,3.113 2.868,3.343l1.782,0.314l0.034,0.006l1.634,0.288l0.447,0.079v0.539v2.042v2.572c-4.239,-1.276 -7.851,-4.302 -9.781,-8.417c-0.993,-2.117 -1.497,-4.369 -1.497,-6.69c0,-2.196 0.473,-4.421 1.369,-6.435l0.459,-1.03l-0.995,-0.443l-1.066,-0.474l-0.458,1.031c-1.037,2.333 -1.564,4.806 -1.564,7.351c0,2.654 0.576,5.228 1.711,7.648c2.302,4.908 6.701,8.454 11.822,9.791v0.043l0.903,0.183c0.328,0.067 0.66,0.123 0.993,0.172c0.064,0.009 0.128,0.015 0.192,0.024c0.164,0.022 0.328,0.044 0.493,0.062c0.581,1.816 0.872,3.744 0.53,5.569c-0.462,2.467 -2.07,4.466 -4.778,5.944c-2.608,1.423 -4.741,1.893 -6.341,1.405c-2.128,-0.653 -3.317,-2.958 -4.467,-5.187c-1.221,-2.365 -2.483,-4.811 -5.001,-4.811c-0.229,0 -0.455,0.018 -0.68,0.047c-0.073,0.01 -0.145,0.026 -0.218,0.039c-0.151,0.025 -0.302,0.055 -0.451,0.092c-0.084,0.021 -0.167,0.047 -0.25,0.072c-0.138,0.041 -0.276,0.087 -0.412,0.138c-0.084,0.031 -0.168,0.064 -0.251,0.099c-0.138,0.058 -0.273,0.122 -0.409,0.188c-0.077,0.038 -0.155,0.075 -0.231,0.115c-0.152,0.081 -0.302,0.171 -0.451,0.262c-0.057,0.035 -0.114,0.067 -0.171,0.103c-0.204,0.132 -0.405,0.272 -0.604,0.422c-0.044,0.033 -0.087,0.07 -0.13,0.104c-0.155,0.12 -0.309,0.243 -0.46,0.373c-0.071,0.061 -0.14,0.125 -0.211,0.187c-0.123,0.11 -0.245,0.221 -0.365,0.337c-0.074,0.071 -0.148,0.143 -0.221,0.216c-0.115,0.115 -0.229,0.232 -0.342,0.351c-0.071,0.075 -0.142,0.15 -0.213,0.227c-0.116,0.127 -0.23,0.256 -0.343,0.387c-0.063,0.072 -0.126,0.143 -0.188,0.216c-0.138,0.164 -0.273,0.33 -0.406,0.498c-0.034,0.042 -0.069,0.083 -0.102,0.126c-0.165,0.21 -0.326,0.424 -0.484,0.639c-0.051,0.069 -0.099,0.138 -0.149,0.207c-0.108,0.15 -0.215,0.3 -0.32,0.452c-0.059,0.085 -0.116,0.171 -0.174,0.256c-0.055,0.082 -0.112,0.162 -0.165,0.244c-2.253,-4.61 -3.437,-9.705 -3.437,-14.855c0,-18.65 15.174,-33.824 33.825,-33.824zM52.255,53.226c-0.017,0.002 -0.033,0.003 -0.05,0.006c-0.351,0.049 -0.704,0.088 -1.058,0.113c-0.008,0 -0.016,0.002 -0.025,0.002c-0.255,0.018 -0.513,0.023 -0.77,0.03c-0.22,0.003 -0.441,0.003 -0.661,-0.002c-0.42,-0.008 -0.839,-0.034 -1.257,-0.075c-0.129,-0.013 -0.258,-0.025 -0.387,-0.041c-0.101,-0.013 -0.202,-0.018 -0.303,-0.033v-0.002v-1.393v-2.333v-2.505v-1.157v-0.161l-2.446,-0.431l-0.003,-0.001l-3.348,-0.59c-0.552,-0.078 -0.968,-0.558 -0.968,-1.117v-1.426h2.255h2.255h4.511h2.255h2.255h2.255h2.106h0.102c0.015,0 0.031,0 0.046,0v1.123v0.303c0,0.558 -0.415,1.037 -1.003,1.123c0,0 -0.001,0 -0.002,0l-0.672,0.118l-5.089,0.897v0.277v7.271v0.004zM39.938,27.187c0.327,-0.019 0.449,-0.048 0.623,-0.141l1.092,-0.564c0.395,-0.205 1.203,-0.205 1.599,0l1.091,0.563c1.047,0.544 2.626,0.543 3.671,0.001l1.092,-0.564c0.405,-0.209 1.197,-0.209 1.601,0l1.09,0.563c1.047,0.544 2.626,0.544 3.672,0.001l1.091,-0.564c0.404,-0.209 1.197,-0.209 1.601,0l1.088,0.563c0.207,0.107 0.405,0.142 0.818,0.173l-0.963,12.639h-2.337v-6.765h-2.257v6.765h-2.255v-3.383h-2.255v3.383h-4.51v-9.02h-2.255v9.02h-2.337zM31.498,53.382l1.59,-1.601l1.589,1.601l-1.589,1.59c-1.59,-1.59 0,0 -1.59,-1.59zM21.813,49.335c-1.59,-1.59 0,0 -1.59,-1.59l1.59,-1.601l1.589,1.601zM21.813,54.972c-1.59,-1.59 0,0 -1.59,-1.59l1.59,-1.601l1.589,1.601zM27.45,31.295c-1.602,-1.589 0,0 -1.602,-1.589l1.602,-1.601l1.59,1.601zM68.693,52.255l1.602,-1.601l1.589,1.601l-1.589,1.601c-1.602,-1.601 0,0 -1.602,-1.601zM72.087,40.98l1.59,-1.6l1.59,1.6l-1.59,1.59c-1.59,-1.59 0,0 -1.59,-1.59zM77.06,52.729c-1.59,-1.601 0,0 -1.59,-1.601l1.59,-1.601l1.589,1.601zM44.362,72.55h2.255v5.637h-2.255z"></path></g></g></svg>