<svg xmlns="http://www.w3.org/2000/svg" xmlns:xlink="http://www.w3.org/1999/xlink" viewBox="0,0,256,256" width="66px" height="66px"><g fill="#eba426" fill-rule="nonzero" stroke="none" stroke-width="1" stroke-linecap="butt" stroke-linejoin="miter" stroke-miterlimit="10" stroke-dasharray="" stroke-dashoffset="0" font-family="none" font-weight="none" font-size="none" text-anchor="none" style="mix-blend-mode: normal"><g transform="scale(2.56,2.56)"><path d="M26.09961,17.80078c-1.1,0 -2,0.9 -2,2v4.39844c0,1.1 0.9,2 2,2h2.30078v8.60156h-19.20117c-1.1,0 -2,0.9 -2,2v3.5c0,1.1 0.9,2 2,2h1.60156v13.79883h-1.60156c-1.1,0 -2,0.9 -2,2v3.5c0,1.1 0.9,2 2,2h1.60156v10.70117h-5.80078c-0.6,0 -1,0.4 -1,1c0,0.5 0.4,0.89844 1,0.89844h11.09961h1.5c0.6,0 1,-0.4 1,-1c0,-0.6 -0.4,-1 -1,-1h-4.79883v-10.69922h15.59961v10.69922h-5.30078h-0.09961c-0.6,0 -1,0.4 -1,1c0,0.6 0.4,1 1,1h52.69922c0.1,0 0.30039,0.00039 0.40039,-0.09961c0.5,-0.1 0.80078,-0.5 0.80078,-1c0,-0.6 -0.4,-1 -1,-1h-4.30078v-10.59961h15.59961v10.69922h-3.5c-0.6,0 -1,0.4 -1,1c0,0.4 0.30156,0.80039 0.60156,0.90039c0.1,0.1 0.3,0.09961 0.5,0.09961h11.19922c0.6,0 1,-0.4 1,-1c0,-0.6 -0.4,-1 -1,-1h-5.80078v-10.69922h1.60156c1.1,0 2,-0.9 2,-2v-3.5c0,-1.1 -0.9,-2 -2,-2h-1.60156v-13.69922h1.60156c1.1,0 2,-0.9 2,-2v-3.5c0,-1.1 -0.9,-2 -2,-2h-19.20117v-8.60156h2.30078c1.1,0 2,-0.9 2,-2v-4.39844c0,-1.1 -0.9,-2 -2,-2zM26.09961,19.90039h47.80078v4.40039h-47.80078zM12.69922,23.40039c-0.4,0 -0.69922,0.29922 -0.69922,0.69922v1.09961h-1.09961c-0.4,0 -0.70117,0.30117 -0.70117,0.70117c0,0.4 0.30117,0.69922 0.70117,0.69922h1.09961v1.09961c0,0.4 0.29922,0.70117 0.69922,0.70117c0.4,0 0.70117,-0.30117 0.70117,-0.70117v-1.09961h1.09961c0.5,0 0.80078,-0.29922 0.80078,-0.69922c0,-0.4 -0.30117,-0.70117 -0.70117,-0.70117h-1.09961v-1.09961c0,-0.4 -0.30078,-0.69922 -0.80078,-0.69922zM30.40039,26.19922h39.19922v48h-12.79883v-10c0,-1.6 -1.30039,-2.89844 -2.90039,-2.89844h-7.80078c-1.6,0 -2.90039,1.29844 -2.90039,2.89844v10h-12.79883zM87.5957,26.7793c-0.09531,-0.01094 -0.19492,-0.00352 -0.29492,0.02148c-0.4,0.1 -0.6,0.49844 -0.5,0.89844l0.19922,1l-1,0.20117c-0.4,0.1 -0.6,0.50039 -0.5,0.90039c0.1,0.4 0.50039,0.59961 0.90039,0.59961l1,-0.20117l0.19922,1c0.1,0.4 0.50039,0.6 0.90039,0.5c0.4,-0.1 0.59961,-0.49844 0.59961,-0.89844l-0.19922,-1l1,-0.20117c0.2,-0.2 0.40039,-0.6 0.40039,-1c-0.1,-0.4 -0.50039,-0.6 -0.90039,-0.5l-1,0.20117l-0.20117,-1c-0.075,-0.3 -0.31758,-0.48867 -0.60352,-0.52148zM36.19922,28.69922c-1.1,0 -2,0.9 -2,2v4.80078c0.1,1.1 1,2 2,2h27.5c1.1,0 2,-0.9 2,-2v-4.80078c0,-1.1 -0.9,-2 -2,-2zM36.19922,30.69922h27.5v4.80078h-27.5zM9.30078,36.80078h19.19922v3.39844h-19.19922zM71.59961,36.80078h19.09961v3.39844h-19.09961zM36.19922,39.69922c-1.1,0 -2,0.9 -2,2v4.80078c0.1,1.1 1,2 2,2h27.5c1.1,0 2,-0.9 2,-2v-4.80078c0,-1.1 -0.9,-2 -2,-2zM36.19922,41.80078h27.5v4.79883h-27.5zM12.80078,42.30078h15.59961v13.79883h-15.59961zM71.59961,42.30078h15.59961v13.79883h-15.59961zM15.40039,44.30078c-0.8,0 -1.5,0.7 -1.5,1.5v6.79883c0,0.8 0.7,1.5 1.5,1.5h3.5c0.8,0 1.5,-0.7 1.5,-1.5v-6.79883c-0.1,-0.8 -0.7,-1.5 -1.5,-1.5zM22.59961,44.30078c-0.8,0 -1.5,0.7 -1.5,1.5v6.79883c0,0.8 0.7,1.5 1.5,1.5h3.5c0.8,0 1.5,-0.7 1.5,-1.5v-6.79883c-0.1,-0.8 -0.7,-1.5 -1.5,-1.5zM73.69922,44.30078c-0.8,0 -1.5,0.7 -1.5,1.5v6.79883c0,0.8 0.7,1.5 1.5,1.5h3.5c0.8,0 1.5,-0.7 1.5,-1.5v-6.79883c0,-0.8 -0.7,-1.5 -1.5,-1.5zM80.90039,44.30078c-0.8,0 -1.5,0.7 -1.5,1.5v6.79883c0,0.8 0.7,1.5 1.5,1.5h3.5c0.8,0 1.5,-0.7 1.5,-1.5v-6.79883c0,-0.8 -0.6,-1.5 -1.5,-1.5zM15.30078,45.30078h3.5c0.3,0 0.5,0.2 0.5,0.5v6.79883c0,0.3 -0.2,0.5 -0.5,0.5h-3.5c-0.3,0 -0.5,-0.2 -0.5,-0.5v-6.79883c0,-0.3 0.2,-0.5 0.5,-0.5zM22.5,45.30078h3.5c0.3,0 0.5,0.2 0.5,0.5v6.79883c0,0.3 -0.2,0.5 -0.5,0.5h-3.5c-0.3,0 -0.5,-0.2 -0.5,-0.5v-6.79883c0,-0.3 0.2,-0.5 0.5,-0.5zM73.69922,45.30078h3.5c0.3,0 0.5,0.2 0.5,0.5v6.79883c0,0.3 -0.2,0.5 -0.5,0.5h-3.5c-0.3,0 -0.5,-0.2 -0.5,-0.5v-6.79883c0,-0.3 0.2,-0.5 0.5,-0.5zM80.90039,45.30078h3.5c0.3,0 0.5,0.2 0.5,0.5v6.79883c0,0.3 -0.2,0.5 -0.5,0.5h-3.5c-0.3,0 -0.5,-0.2 -0.5,-0.5v-6.79883c0,-0.3 0.2,-0.5 0.5,-0.5zM36.19922,50.80078c-1.1,0 -2,0.9 -2,2v4.79883c0.1,1.1 1,2 2,2h27.5c1.1,0 2,-0.9 2,-2v-4.79883c0,-1.1 -0.9,-2 -2,-2zM94.10547,51.26367c-0.28594,0.00469 -0.53047,0.13555 -0.60547,0.43555l-0.40039,1l-1,-0.39844c-0.4,-0.1 -0.80039,-0.00156 -0.90039,0.39844c-0.1,0.4 0.00039,0.80039 0.40039,0.90039l1,0.40039l-0.40039,1c-0.3,0.3 -0.09922,0.80039 0.30078,0.90039c0.4,0.1 0.8,-0.00039 1,-0.40039l0.40039,-1l1,0.40039c0.4,0.1 0.80039,-0.00039 0.90039,-0.40039c0.1,-0.4 -0.00039,-0.80039 -0.40039,-0.90039l-1,-0.40039l0.40039,-1c0.1,-0.4 -0.00039,-0.79844 -0.40039,-0.89844c-0.1,-0.025 -0.19961,-0.03867 -0.29492,-0.03711zM36.19922,52.80078h27.5v4.79883h-27.5zM9.19922,58.09961h19.20117v3.40039h-19.20117zM71.59961,58.09961h19.20117v3.40039h-19.20117zM46,63.30078h7.80078c0.5,0 0.89844,0.39844 0.89844,0.89844v10h-9.59961v-10c0,-0.5 0.40039,-0.89844 0.90039,-0.89844zM22.5,64.90039c-0.8,0 -1.5,0.7 -1.5,1.5v4.90039c0,0.8 0.7,1.5 1.5,1.5h3.5c0.8,0 1.5,-0.7 1.5,-1.5v-4.90039c0,-0.8 -0.7,-1.5 -1.5,-1.5zM81.09961,64.90039c-0.8,0 -1.5,0.7 -1.5,1.5v4.90039c0,0.8 0.7,1.5 1.5,1.5h3.5c0.8,0 1.5,-0.7 1.5,-1.5v-4.90039c0,-0.8 -0.7,-1.5 -1.5,-1.5zM15.19922,65c-0.8,0 -1.5,0.7 -1.5,1.5v4.90039c0,0.8 0.7,1.5 1.5,1.5h3.5c0.8,0 1.5,-0.7 1.5,-1.5v-4.90039c0,-0.8 -0.7,-1.5 -1.5,-1.5zM73.90039,65c-0.8,0 -1.5,0.7 -1.5,1.5v4.90039c0,0.8 0.7,1.5 1.5,1.5h3.5c0.8,0 1.5,-0.7 1.5,-1.5v-4.90039c0,-0.8 -0.7,-1.5 -1.5,-1.5zM15.19922,65.90039h3.5c0.3,0 0.5,0.2 0.5,0.5v4.90039c0,0.3 -0.2,0.5 -0.5,0.5h-3.5c-0.3,0 -0.5,-0.2 -0.5,-0.5v-4.90039c0,-0.3 0.2,-0.5 0.5,-0.5zM22.5,65.90039h3.5c0.3,0 0.5,0.2 0.5,0.5v4.90039c0,0.3 -0.2,0.5 -0.5,0.5h-3.5c-0.3,0 -0.5,-0.2 -0.5,-0.5v-4.90039c0,-0.3 0.2,-0.5 0.5,-0.5zM73.90039,65.90039h3.5c0.3,0 0.5,0.2 0.5,0.5v4.90039c0,0.3 -0.2,0.5 -0.5,0.5h-3.5c-0.3,0 -0.5,-0.2 -0.5,-0.5v-4.90039c0,-0.3 0.2,-0.5 0.5,-0.5zM81.09961,65.90039h3.5c0.3,0 0.5,0.2 0.5,0.5v4.90039c0,0.3 -0.2,0.5 -0.5,0.5h-3.5c-0.3,0 -0.5,-0.2 -0.5,-0.5v-4.90039c0,-0.3 0.2,-0.5 0.5,-0.5zM52.19922,67.59961c-0.5,0 -1,0.4 -1,1v2c0,0.5 0.4,1 1,1c0.5,0 1,-0.4 1,-1v-2c0,-0.5 -0.4,-1 -1,-1zM49.90039,77.09961c-0.4,0 -0.70117,0.30117 -0.70117,0.70117v1.09961h-1.09961c-0.3,0.1 -0.69961,0.39883 -0.59961,0.79883c0,0.4 0.29922,0.70117 0.69922,0.70117h1.10156v1.09961c0,0.4 0.29922,0.69922 0.69922,0.69922c0.4,0 0.69922,-0.29922 0.69922,-0.69922v-1.09961h1.10156c0.4,0 0.69922,-0.30078 0.69922,-0.80078c0,-0.4 -0.29922,-0.69922 -0.69922,-0.69922h-1.10156v-1.09961c0,-0.4 -0.29883,-0.70117 -0.79883,-0.70117z"></path></g></g></svg>