<svg xmlns="http://www.w3.org/2000/svg" xmlns:xlink="http://www.w3.org/1999/xlink" viewBox="0,0,256,256" width="50px" height="50px"><g fill="#eba426" fill-rule="nonzero" stroke="none" stroke-width="1" stroke-linecap="butt" stroke-linejoin="miter" stroke-miterlimit="10" stroke-dasharray="" stroke-dashoffset="0" font-family="none" font-weight="none" font-size="none" text-anchor="none" style="mix-blend-mode: normal"><g transform="scale(5.12,5.12)"><path d="M4,6v5l-0.125,0.84375c-0.03516,0.20703 -0.875,5.10156 -0.875,7.65625c0,1.61719 0.37891,2.90625 1.0625,3.84375c-0.01953,-0.01172 -0.04297,-0.01953 -0.0625,-0.03125v24.6875h42v-24.6875c-0.01953,0.01172 -0.03906,0.01953 -0.0625,0.03125c0.68359,-0.9375 1.0625,-2.22656 1.0625,-3.84375c0,-2.55469 -0.83984,-7.44922 -0.875,-7.65625l-0.15625,-0.84375h0.03125v-5zM5.6875,13h4.3125v8.90625c-0.65625,0.67969 -1.57812,1.09375 -2.5,1.09375c-1.66016,0 -2.5,-1.17969 -2.5,-3.5c0,-1.78906 0.45703,-4.98828 0.6875,-6.5zM12,13h5v8.90625c-0.65625,0.67969 -1.57812,1.09375 -2.5,1.09375c-0.92187,0 -1.84375,-0.41797 -2.5,-1.09375zM19,13h5v8.90625c-0.65625,0.67969 -1.57812,1.09375 -2.5,1.09375c-0.92187,0 -1.84375,-0.41797 -2.5,-1.09375zM26,13h5v8.90625c-0.65625,0.67969 -1.57812,1.09375 -2.5,1.09375c-0.92187,0 -1.84375,-0.41797 -2.5,-1.09375zM33,13h5v8.90625c-0.65625,0.67969 -1.57812,1.09375 -2.5,1.09375c-0.92187,0 -1.84375,-0.41797 -2.5,-1.09375zM40,13h4.28125c0.23828,1.51172 0.71875,4.71094 0.71875,6.5c0,2.32031 -0.83984,3.5 -2.5,3.5c-0.92187,0 -1.84375,-0.41797 -2.5,-1.09375zM10,30h16v12h-16zM31,30h9v16h-9z"></path></g></g></svg>