<?xml version="1.0"?><svg fill="#FFFFFF" xmlns="http://www.w3.org/2000/svg"  viewBox="0 0 50 50" width="50px" height="50px">    <path d="M 18.5 2 C 17.672 2 17 2.672 17 3.5 L 17 9.5 C 17 10.328 17.672 11 18.5 11 L 31.5 11 C 32.328 11 33 10.328 33 9.5 L 33 3.5 C 33 2.672 32.328 2 31.5 2 L 18.5 2 z M 9 4 C 7.346 4 6 5.346 6 7 L 6 45 C 6 46.654 7.346 48 9 48 L 41 48 C 42.158 48 43.164062 47.341906 43.664062 46.378906 C 43.878062 45.965906 44 45.496 44 45 L 44 7 C 44 5.346 42.654 4 41 4 L 35 4 L 35 9 L 39 9 L 39 43 L 11 43 L 11 9 L 15 9 L 15 4 L 9 4 z M 33.994141 16.988281 A 1.0001 1.0001 0 0 0 33.175781 17.433594 L 23.541016 31.482422 L 16.675781 25.179688 A 1.0001 1.0001 0 1 0 15.324219 26.652344 L 23.886719 34.515625 L 34.824219 18.566406 A 1.0001 1.0001 0 0 0 33.994141 16.988281 z"/></svg>